#!OML:ASF F:\VICON\USERDATA\INSTALL\rory3\rory3.ASF
:FULLY-SPECIFIED
:DEGREES
99
root -1.12113 16.274 -13.1457 2.35565 -1.88862 -1.93494
lowerback 11.8236 1.86964 -2.58908
upperback -4.38728 2.32843 2.19903
thorax -11.6541 1.40341 3.35558
lowerneck -9.30874 -5.69172 -3.55957
upperneck 17.2484 -7.87641 3.50534
head 7.09037 -3.72146 1.00632
rclavicle -1.99406e-015 -3.97569e-015
rhumerus -26.5355 1.48088 -83.0436
rradius 38.7602
rwrist -4.31015
rhand -10.88 19.0889
rfingers 7.12502
rthumb 15.1361 -10.3376
lclavicle -1.99406e-015 -3.97569e-015
lhumerus -41.961 7.02411 86.0356
lradius 21.6766
lwrist 0.01717
lhand -4.28055 18.0915
lfingers 7.12502
lthumb 21.4845 46.92
rfemur 19.2176 12.6458 31.1418
rtibia -6.36111e-014
rfoot -11.0333 -5.83477
rtoes -20.9547
lfemur -36.4383 -22.5742 -10.8817
ltibia 28.5537
lfoot -15.9415 20.6254
ltoes 25.3912
100
root -1.10328 16.2627 -13.0041 2.35614 -2.0721 -2.04769
lowerback 11.7388 1.89103 -2.46394
upperback -4.38909 2.37961 2.20258
thorax -11.6034 1.41799 3.27863
lowerneck -9.26231 -5.71434 -3.3757
upperneck 17.176 -7.90449 3.33507
head 7.04502 -3.73945 0.922051
rclavicle 7.13761e-015 -1.03368e-014
rhumerus -26.4454 1.4898 -83.1037
rradius 38.3818
rwrist -4.09038
rhand -10.7857 19.7127
rfingers 7.12502
rthumb 15.2269 -9.70697
lclavicle 7.13761e-015 -1.03368e-014
lhumerus -41.8561 7.06983 85.8831
lradius 21.6421
lwrist -0.181818
lhand -4.18577 17.9533
lfingers 7.12502
lthumb 21.5756 46.7715
rfemur 19.7389 12.5011 31.1829
rtibia -2.8625e-014
rfoot -10.8827 -5.52806
rtoes -21.8325
lfemur -36.5173 -22.7084 -10.736
ltibia 28.4046
lfoot -16.2543 20.4845
ltoes 27.6184
101
root -1.08454 16.2518 -12.8605 2.35217 -2.41505 -2.09985
lowerback 11.6264 1.98283 -2.3861
upperback -4.35078 2.51372 2.17074
thorax -11.4979 1.47267 3.17237
lowerneck -9.27072 -5.6778 -3.32888
upperneck 17.2005 -7.86051 3.32336
head 7.0504 -3.716 0.914472
rclavicle 2.03879e-014 7.7526e-015
rhumerus -26.4141 1.30742 -83.1649
rradius 38.0746
rwrist -3.75567
rhand -10.8261 20.2689
rfingers 7.12502
rthumb 15.188 -9.15371
lclavicle 2.03879e-014 7.7526e-015
lhumerus -41.6535 6.88006 85.8929
lradius 21.7815
lwrist -0.000640941
lhand -4.03094 18.3852
lfingers 7.12502
lthumb 21.7243 47.1862
rfemur 20.2857 12.5139 31.1481
rtibia -4.77083e-014
rfoot -10.7212 -5.20565
rtoes -22.8191
lfemur -36.4146 -22.4162 -10.8834
ltibia 28.3608
lfoot -16.5282 20.0746
ltoes 29.3625
102
root -1.06446 16.2331 -12.713 2.32219 -2.62073 -2.15357
lowerback 11.6447 2.00699 -2.3411
upperback -4.38927 2.55612 2.19195
thorax -11.5548 1.49179 3.16024
lowerneck -9.09119 -5.63218 -3.32663
upperneck 17.132 -7.79345 3.2865
head 6.99263 -3.69039 0.91493
rclavicle -5.01931e-015 -2.66371e-014
rhumerus -26.5254 1.22013 -83.173
rradius 37.8589
rwrist -3.54463
rhand -10.8728 20.4574
rfingers 7.12502
rthumb 15.143 -8.96861
lclavicle -5.01931e-015 -2.66371e-014
lhumerus -41.5735 6.62906 86.0128
lradius 21.8822
lwrist 0.299372
lhand -4.11906 18.3519
lfingers 7.12502
lthumb 21.6396 47.1627
rfemur 20.9014 12.3887 31.115
rtibia -7.31528e-014
rfoot -10.6726 -4.86122
rtoes -23.4925
lfemur -36.2265 -22.0404 -11.2031
ltibia 28.4109
lfoot -16.4949 19.7081
ltoes 29.53
103
root -1.04682 16.2064 -12.568 2.24237 -2.38083 -2.12726
lowerback 11.7241 1.87755 -2.32953
upperback -4.43608 2.38393 2.2
thorax -11.6412 1.41104 3.19877
lowerneck -8.92651 -5.60328 -3.32127
upperneck 17.0258 -7.74546 3.235
head 6.92535 -3.67511 0.90835
rclavicle -2.79417e-014 -1.98785e-014
rhumerus -26.6362 1.08912 -83.1925
rradius 37.5968
rwrist -3.44053
rhand -11.0364 20.2905
rfingers 7.12502
rthumb 14.9855 -9.14725
lclavicle -2.79417e-014 -1.98785e-014
lhumerus -41.5072 6.54537 86.0419
lradius 21.863
lwrist 0.460582
lhand -4.25299 18.3452
lfingers 7.12502
lthumb 21.511 47.1707
rfemur 21.5412 11.8214 30.9854
rtibia 6.36111e-014
rfoot -10.6316 -4.37664
rtoes -23.4634
lfemur -36.0007 -21.5928 -11.7859
ltibia 28.5025
lfoot -15.811 18.7782
ltoes 29.9955
104
root -1.02916 16.1838 -12.4185 2.1358 -2.26431 -2.13852
lowerback 11.6971 1.81511 -2.32709
upperback -4.3797 2.30045 2.20633
thorax -11.5545 1.36949 3.22331
lowerneck -9.12541 -5.54842 -3.33903
upperneck 17.1909 -7.68346 3.31386
head 7.01533 -3.63513 0.934291
rclavicle 3.60297e-016 5.1684e-015
rhumerus -26.6981 0.894853 -83.1632
rradius 37.239
rwrist -3.28705
rhand -10.9328 20.5825
rfingers 7.12502
rthumb 15.0852 -8.84781
lclavicle 3.60297e-016 5.1684e-015
lhumerus -41.2547 6.60417 85.9514
lradius 21.6379
lwrist 0.173893
lhand -4.24756 18.4443
lfingers 7.12502
lthumb 21.5162 47.2692
rfemur 22.1782 11.371 30.9033
rtibia -7.95139e-014
rfoot -10.427 -3.95189
rtoes -23.5312
lfemur -35.6576 -21.1087 -12.3293
ltibia 28.6552
lfoot -14.6546 17.6313
ltoes 30.518
105
root -1.00076 16.1723 -12.2486 1.98853 -2.67302 -2.14269
lowerback 11.5372 1.92944 -2.2746
upperback -4.33298 2.46338 2.19599
thorax -11.4157 1.44045 3.1497
lowerneck -9.1289 -5.5512 -3.2715
upperneck 17.2339 -7.68817 3.24806
head 7.02459 -3.63831 0.901395
rclavicle 1.90709e-014 -1.98785e-014
rhumerus -26.9402 0.625231 -83.0737
rradius 36.8903
rwrist -3.00012
rhand -10.7075 20.7305
rfingers 7.12502
rthumb 15.3023 -8.68339
lclavicle 1.90709e-014 -1.98785e-014
lhumerus -41.2488 6.4008 86.0379
lradius 21.5561
lwrist 0.13914
lhand -4.48597 18.7312
lfingers 7.12502
lthumb 21.2872 47.5821
rfemur 22.9302 11.4406 30.7806
rtibia -5.725e-014
rfoot -10.1078 -3.51897
rtoes -24.0867
lfemur -35.0726 -20.9216 -12.7311
ltibia 28.873
lfoot -13.6979 16.963
ltoes 31.677
106
root -0.970497 16.168 -12.0782 1.92029 -3.07549 -2.09166
lowerback 11.2784 2.01352 -2.22118
upperback -4.33726 2.58317 2.14588
thorax -11.2692 1.49001 3.04435
lowerneck -8.88948 -5.51341 -3.18048
upperneck 17.1425 -7.63428 3.14319
head 6.94314 -3.6202 0.866564
rclavicle -5.37216e-014 2.5842e-015
rhumerus -27.2158 0.581772 -83.1075
rradius 36.4813
rwrist -2.94575
rhand -10.9538 20.4573
rfingers 7.12502
rthumb 15.065 -8.97452
lclavicle -5.37216e-014 2.5842e-015
lhumerus -41.2794 6.17076 86.0239
lradius 21.5618
lwrist 0.188869
lhand -4.51561 18.8588
lfingers 7.12502
lthumb 21.2588 47.713
rfemur 23.5354 11.5303 30.5476
rtibia 6.67916e-014
rfoot -9.57084 -3.06104
rtoes -24.9109
lfemur -34.62 -20.6954 -13.1535
ltibia 29.2002
lfoot -12.5789 16.5732
ltoes 33.365
